# xmcd
#
# Track frame offsets:
#	150
#	22975
#	39995
#	57435
#	76155
#	96895
#	110667
#	126675
#	141812
#	155900
#	170795
#	183112
#	202050
#	216625
#	236665
#	249465
#	268657
#	288512
# Disc length: 4082 seconds
# Revision: 1
# Processed by: cddbd v1.5.2PL0 Copyright (c) Steve Scherf et al.
#
# Submitted via: libkcddb 0.21
#
DISCID=180ff012
DTITLE=Varoius - Gospel Forever
DYEAR=2000
DGENRE=Gospel
TTITLE0=The Edwin Hawkins Singers - Oh Happy Day
TTITLE1=Queen Esther Marrow and The Harlem Gospel Singers - Higher and Higher
TTITLE2=Mahalia Jackson - When The Saints go Marching in
TTITLE3=Original U.S.A Gospel Choir Feat. Joan Orleans - Amazing Grace
TTITLE4=Queen Esther Marrow and The Harlem Gospel Singers - Give A Little Love
TTITLE5=Aretha Franklin - God Bless The Child
TTITLE6=Golden Gate Quartett - Amen
TTITLE7=Original U.S.A Gospel Choir Feat. Joan Orleans - Joshua Fit The Battle of Jericho
TTITLE8=Etta James - Down by the Riverside
TTITLE9=Original U.S.A Gospel Choir Feat. Joan Orleans - Sweet Little Jesus Boy - Go Tell it on the Mountain
TTITLE10=The Jordanaires - Will the Circle Be Unbroken
TTITLE11=Original U.S.A Gospel Choir Feat. Joan Orleans - Swing Low, Sweet Chariot
TTITLE12=Sandy Posey - Put your Hand in the Hand
TTITLE13=Original U.S.A Gospel Choir Feat. Joan Orleans - What a friend we have in Jesus
TTITLE14=Golden Gate Quartett - He's got the whole World in his Hand
TTITLE15=Queen Ester Marrow and The Harlem Gospel Singers - Bridge over Troubled Water
TTITLE16=Original U.S.A Gospel Choir Feat. Joan Orleans - We are the World
TTITLE17=Holy Groove - Let it Be
EXTD=
EXTT0=
EXTT1=
EXTT2=
EXTT3=
EXTT4=
EXTT5=
EXTT6=
EXTT7=
EXTT8=
EXTT9=
EXTT10=
EXTT11=
EXTT12=
EXTT13=
EXTT14=
EXTT15=
EXTT16=
EXTT17=
PLAYORDER=
